<svg xmlns="http://www.w3.org/2000/svg" viewBox="0 0 720 360" role="img" aria-labelledby="title desc">
  <title id="title">Trator ASM 8R Performance BR</title>
  <desc id="desc">Ilustração de trator verde customizado para Farming Simulator 22.</desc>
  <defs>
    <linearGradient id="tractorGreen" x1="0" x2="1" y1="0" y2="1">
      <stop offset="0" stop-color="#41b957"/>
      <stop offset="0.55" stop-color="#1f6f2f"/>
      <stop offset="1" stop-color="#0a2513"/>
    </linearGradient>
    <linearGradient id="metal" x1="0" x2="1">
      <stop offset="0" stop-color="#edf1f2"/>
      <stop offset="0.22" stop-color="#7f8a90"/>
      <stop offset="0.58" stop-color="#252b2e"/>
      <stop offset="1" stop-color="#b9c1c6"/>
    </linearGradient>
    <filter id="shadow" x="-20%" y="-20%" width="140%" height="140%">
      <feDropShadow dx="0" dy="20" stdDeviation="18" flood-color="#000" flood-opacity="0.46"/>
    </filter>
  </defs>
  <path d="M32 291h650" stroke="#273035" stroke-width="14" stroke-linecap="round"/>
  <g filter="url(#shadow)">
    <circle cx="202" cy="246" r="82" fill="#111719" stroke="url(#metal)" stroke-width="18"/>
    <circle cx="202" cy="246" r="42" fill="#273035" stroke="#f2c94c" stroke-width="12"/>
    <circle cx="552" cy="250" r="55" fill="#111719" stroke="url(#metal)" stroke-width="14"/>
    <circle cx="552" cy="250" r="26" fill="#273035" stroke="#f2c94c" stroke-width="9"/>
    <path d="M90 228h84l74-118h196l46 118h106" fill="none" stroke="#101719" stroke-width="52" stroke-linecap="round" stroke-linejoin="round"/>
    <path d="M94 218h86l72-114h190l45 114h111" fill="none" stroke="url(#tractorGreen)" stroke-width="38" stroke-linecap="round" stroke-linejoin="round"/>
    <path d="M259 105h-58l-43 72h132M421 104l35-71h83M455 151h102" fill="none" stroke="url(#metal)" stroke-width="20" stroke-linecap="round" stroke-linejoin="round"/>
    <path d="M296 100h126l32 84H244l52-84Z" fill="#101719" stroke="#dfe7ea" stroke-width="8"/>
    <path d="M323 116h75l18 48h-122l29-48Z" fill="#6f919d"/>
    <path d="M121 186h93M500 198h82M380 84h76" stroke="#f2c94c" stroke-width="12" stroke-linecap="round"/>
    <path d="M460 45h78l22 29" fill="none" stroke="#101719" stroke-width="10" stroke-linecap="round"/>
  </g>
</svg>
