<?xml version="1.0" standalone="no"?>
<!DOCTYPE svg PUBLIC "-//W3C//DTD SVG 20010904//EN"
 "http://www.w3.org/TR/2001/REC-SVG-20010904/DTD/svg10.dtd">
<svg version="1.0" xmlns="http://www.w3.org/2000/svg"
 width="512.000000pt" height="512.000000pt" viewBox="0 0 512.000000 512.000000"
 preserveAspectRatio="xMidYMid meet">

<g transform="translate(0.000000,512.000000) scale(0.100000,-0.100000)"
fill="#000000" stroke="none">
<path d="M2285 3079 c-7 -37 11 -112 43 -179 9 -19 18 -39 21 -44 2 -5 -4 -6
-14 -2 -36 13 -358 57 -381 52 -31 -8 -44 -42 -44 -110 0 -35 -5 -58 -15 -66
-16 -14 -21 -60 -6 -60 6 0 7 -39 4 -92 -7 -126 -9 -125 197 -189 91 -29 172
-58 181 -66 10 -8 15 -23 12 -34 -4 -13 -1 -18 8 -15 8 3 36 7 62 10 27 2 51
7 54 10 4 3 12 39 19 78 l13 73 -5 -63 c-3 -35 -8 -70 -11 -78 -4 -10 3 -14
23 -14 16 0 34 4 40 8 6 4 17 48 24 97 6 50 16 106 21 126 5 20 11 54 13 75 2
22 10 68 17 104 13 62 14 64 20 30 6 -31 7 -32 8 -7 1 34 14 35 35 2 13 -20
25 -25 58 -25 l41 0 -7 -195 -8 -195 30 0 c26 0 31 4 36 35 7 34 8 35 56 35
47 0 50 -2 50 -25 0 -20 -5 -25 -26 -25 -18 0 -25 -4 -21 -14 7 -18 -104 -31
-222 -27 -49 2 -86 -1 -90 -7 -7 -12 -163 -29 -376 -42 -165 -10 -187 -13
-290 -37 -126 -29 -204 -53 -219 -68 -8 -8 -24 -58 -37 -110 l-22 -96 -31 8
c-47 12 -246 4 -281 -11 -16 -8 -52 -19 -80 -25 -61 -15 -91 -33 -98 -60 -5
-20 -1 -21 76 -21 96 0 151 -21 210 -78 40 -39 46 -52 21 -52 -9 0 -29 -9 -45
-21 -24 -17 -29 -18 -29 -5 0 18 -30 36 -60 36 -30 0 -70 -44 -70 -76 0 -43
-25 -64 -59 -51 -44 16 -61 4 -61 -44 0 -25 -9 -55 -21 -76 -19 -30 -26 -34
-50 -29 -34 7 -45 -16 -30 -68 7 -27 5 -48 -7 -86 -14 -44 -19 -50 -44 -50
-23 0 -28 -4 -28 -26 0 -14 7 -38 16 -53 23 -40 8 -142 -23 -156 -29 -13 -31
-60 -3 -90 11 -12 23 -43 26 -69 6 -39 3 -52 -15 -77 -29 -39 -22 -71 26 -121
37 -38 37 -40 17 -121 -6 -25 -1 -34 45 -77 37 -35 52 -56 51 -72 -4 -42 0
-47 48 -74 26 -15 56 -35 67 -44 30 -26 120 -56 208 -70 77 -13 78 -12 94 10
14 20 17 21 25 6 21 -37 158 -12 158 30 0 17 2 17 35 2 37 -17 71 2 80 44 10
46 30 66 61 60 33 -6 44 10 44 65 0 61 18 96 47 90 28 -5 37 17 27 68 -3 19
-3 50 0 68 l6 33 73 -7 c72 -8 182 5 193 22 3 5 20 9 39 9 21 0 37 6 43 16 8
15 11 15 35 -1 15 -9 27 -28 29 -43 4 -35 52 -66 151 -97 90 -29 174 -34 282
-18 92 14 105 20 105 49 0 33 37 33 50 0 5 -13 17 -29 27 -34 18 -11 20 -38
12 -155 -4 -44 -1 -50 29 -73 29 -23 32 -31 32 -77 0 -59 3 -65 48 -96 17 -12
32 -28 32 -35 0 -18 87 -54 169 -71 134 -28 348 -13 358 25 3 12 16 20 37 22
30 3 31 6 40 61 9 53 11 58 32 53 27 -7 34 8 34 74 0 59 14 100 35 100 12 0
15 15 16 73 1 63 15 147 18 107 1 -15 55 -56 101 -76 54 -24 163 -37 259 -31
126 8 169 21 177 52 3 13 14 27 24 30 20 6 30 34 30 88 0 26 4 37 15 37 16 0
21 18 29 105 3 33 10 61 16 63 5 2 10 32 10 67 0 35 5 86 10 112 6 26 13 98
15 158 3 61 5 117 6 125 1 8 -2 74 -6 145 -4 72 -7 166 -8 209 -1 53 -6 81
-14 83 -8 3 -13 24 -13 59 0 48 2 54 21 54 18 0 21 4 16 28 -3 15 -11 74 -18
131 -16 131 -26 145 -129 171 -42 10 -89 20 -105 23 -28 4 -28 4 -4 6 35 2 56
63 34 98 -16 24 -42 22 -47 -5 -3 -13 -5 -12 -10 6 -3 12 -2 20 3 16 5 -3 9 2
9 11 0 10 5 14 13 9 8 -5 9 -4 2 3 -5 6 -29 13 -52 16 -38 4 -44 2 -72 -30
-25 -28 -31 -44 -31 -79 0 -35 4 -44 18 -45 14 0 14 -2 -3 -9 -49 -21 -47 -30
-74 235 -12 115 -15 190 -10 209 5 17 9 99 9 182 0 161 -1 164 -50 164 -11 0
-20 8 -22 21 -6 41 -31 45 -110 17 -73 -25 -74 -25 -118 -8 -25 10 -92 28
-150 39 -58 12 -122 26 -142 32 -36 9 -118 5 -658 -31 -245 -16 -304 -22 -322
-31 -29 -15 -33 -73 -9 -114 l21 -36 -36 3 c-34 3 -40 8 -86 88 -27 47 -46 74
-43 61 4 -13 20 -44 36 -69 58 -91 91 -223 53 -208 -9 3 -17 6 -18 6 -2 0 -1
21 1 48 4 42 0 55 -40 119 -30 48 -47 88 -52 121 -4 28 -13 59 -20 69 -12 16
-14 15 -20 -18z m1145 -79 c0 -5 -7 -7 -15 -4 -15 6 -45 -11 -45 -26 0 -4 16
-4 35 0 35 8 35 7 35 -25 0 -26 -4 -34 -17 -33 -10 0 -44 -3 -75 -7 -58 -8
-58 -8 -58 19 0 18 5 26 18 27 14 0 14 2 -3 9 -20 9 -7 15 23 11 6 -1 12 3 12
10 0 7 -10 9 -25 7 -14 -3 -25 -2 -25 3 0 7 38 14 108 17 17 1 32 -2 32 -8z
m548 -13 c3 -14 -4 -17 -40 -17 -24 0 -48 -4 -53 -9 -6 -5 -19 -5 -30 -1 -22
9 -23 8 50 34 49 18 69 16 73 -7z m-1288 -47 c0 -12 -7 -20 -17 -21 -17 -1
-17 -2 0 -6 9 -2 17 -13 17 -23 0 -13 -9 -19 -36 -22 -19 -2 -37 -1 -40 4 -3
4 -14 2 -24 -4 -25 -16 -45 1 -35 31 4 15 15 21 35 21 23 0 28 4 23 16 -4 12
-14 14 -35 10 -18 -3 -27 -2 -23 4 3 6 35 10 71 10 57 0 64 -2 64 -20z m513
-37 c-7 -2 -21 -2 -30 0 -10 3 -4 5 12 5 17 0 24 -2 18 -5z m-1005 -43 c119
-19 145 -26 153 -43 8 -14 8 -26 0 -44 -15 -32 -14 -100 1 -105 10 -4 10 -18
1 -69 -7 -35 -15 -92 -18 -125 -6 -54 -9 -61 -26 -57 -19 5 -27 33 -9 33 12 0
13 59 2 76 -4 7 -20 14 -37 15 -27 4 -30 1 -32 -26 -2 -28 -1 -28 6 -5 6 23 8
21 19 -20 7 -29 8 -46 1 -48 -5 -2 0 -14 13 -26 36 -34 49 -64 42 -92 l-6 -25
-12 22 c-9 19 -47 35 -191 81 -212 69 -240 89 -143 105 52 8 53 9 60 48 4 22
10 100 14 173 8 148 12 141 -68 123 -40 -9 -50 2 -25 28 14 15 52 12 255 -19z
m635 23 c-7 -2 -21 -2 -30 0 -10 3 -4 5 12 5 17 0 24 -2 18 -5z m734 -75 c-2
-13 -4 -3 -4 22 0 25 2 35 4 23 2 -13 2 -33 0 -45z m-1057 15 c1 -22 -55 -314
-58 -305 -2 6 3 50 12 99 14 83 10 173 -9 203 -4 6 7 10 24 10 17 0 31 -3 31
-7z m445 -63 c-3 -5 -15 -10 -26 -10 -11 0 -17 5 -14 10 3 6 15 10 26 10 11 0
17 -4 14 -10z m845 -60 c0 -38 20 -40 21 -2 l1 27 8 -26 c4 -14 10 -68 14
-120 l7 -94 -57 -30 c-32 -16 -72 -39 -90 -51 l-33 -22 4 39 c4 45 11 59 29
59 12 0 36 61 36 93 0 9 -12 18 -31 22 -34 8 -49 36 -49 90 0 33 2 34 43 38
101 9 97 10 97 -23z m-163 -47 c-2 -16 -4 -5 -4 22 0 28 2 40 4 28 2 -13 2
-35 0 -50z m-127 47 c0 -5 -7 -10 -15 -10 -9 0 -20 -12 -25 -26 -9 -22 -13
-24 -25 -14 -13 11 -14 10 -10 -3 4 -8 1 -18 -6 -23 -8 -4 -10 -3 -5 4 4 7 2
12 -4 12 -6 0 -9 4 -6 9 4 5 2 21 -4 35 -10 26 -9 26 45 26 30 0 55 -4 55 -10z
m-654 -15 c4 -8 15 -15 26 -15 19 0 20 -4 14 -52 -3 -29 -6 -81 -6 -115 l0
-61 -56 -4 -56 -3 7 125 c4 69 9 128 12 133 8 13 54 7 59 -8z m274 -15 c7 -33
24 -32 28 3 3 27 5 27 58 26 30 -1 54 -6 54 -11 0 -4 -5 -8 -12 -8 -9 0 -9 -3
0 -12 7 -7 12 -24 12 -39 l0 -27 62 5 c69 7 70 1 6 -43 -24 -16 -81 -62 -128
-101 -52 -45 -93 -73 -108 -73 -12 0 -38 -7 -57 -14 -19 -8 -35 -11 -35 -5 0
5 5 9 10 9 7 0 8 18 4 49 -5 39 -3 49 10 54 20 8 22 67 2 67 -7 0 -19 -7 -27
-16 -10 -13 -10 -17 2 -24 11 -7 11 -12 1 -22 -6 -6 -12 -20 -12 -30 0 -10 -4
-18 -10 -18 -11 0 -14 131 -4 203 7 50 15 55 99 53 34 -1 41 -5 45 -26z m380
-41 c0 -5 -4 -9 -10 -9 -5 0 -10 7 -10 16 0 8 5 12 10 9 6 -3 10 -10 10 -16z
m-36 -61 c3 -29 6 -95 6 -145 l0 -93 -43 0 c-24 0 -69 -5 -101 -11 -55 -12
-58 -11 -84 14 -15 14 -40 31 -56 37 l-30 11 21 20 c27 27 266 218 274 219 3
0 9 -24 13 -52z m36 -103 c0 -90 -4 -145 -10 -145 -6 0 -10 55 -10 145 0 90 4
145 10 145 6 0 10 -55 10 -145z m450 108 c0 -12 -3 -14 -8 -6 -10 16 -27 3
-27 -21 0 -11 -6 -21 -12 -23 -9 -3 -13 7 -13 31 0 33 2 36 30 36 22 0 30 -5
30 -17z m24 -143 c3 -41 9 -97 13 -124 6 -46 5 -49 -13 -41 -10 4 -27 7 -36 7
-10 0 -19 2 -22 6 -9 17 -17 222 -8 222 5 0 13 -43 17 -96 4 -53 11 -92 15
-87 5 4 4 47 -2 96 -8 69 -7 91 3 103 18 22 25 4 33 -86z m-1537 33 c-3 -10
-5 -4 -5 12 0 17 2 24 5 18 2 -7 2 -21 0 -30z m1415 -58 c4 -117 6 -109 -27
-112 -16 -2 -49 -1 -73 3 -37 5 -42 8 -37 25 4 13 2 19 -8 19 -10 0 -13 -7
-10 -20 3 -11 1 -20 -5 -20 -15 0 -21 48 -8 66 11 15 143 93 159 94 4 0 8 -25
9 -55z m-225 -97 c-2 -18 -4 -4 -4 32 0 36 2 50 4 33 2 -18 2 -48 0 -65z
m-577 32 c-8 -5 -17 -7 -19 -4 -3 3 1 9 9 14 8 5 17 7 19 4 3 -3 -1 -9 -9 -14z
m127 5 c20 -8 34 -18 30 -21 -3 -3 -14 -1 -25 5 -12 6 -32 11 -47 11 -15 0
-24 4 -20 10 8 14 19 13 62 -5z m58 -73 c-5 -39 -6 -40 -15 -8 -10 31 -5 50
10 41 5 -3 7 -18 5 -33z m260 -59 c-8 -33 -63 -55 -128 -51 l-51 3 89 72 90
71 3 -35 c2 -20 1 -47 -3 -60z m205 57 c0 -5 -9 -10 -21 -10 -11 0 -17 5 -14
10 3 6 13 10 21 10 8 0 14 -4 14 -10z m164 -21 c7 -35 -4 -54 -34 -62 -16 -4
-20 0 -20 18 0 13 7 25 15 29 8 3 15 10 15 15 0 6 -6 8 -14 5 -8 -3 -17 0 -22
7 -5 9 -2 10 9 6 9 -3 19 -2 22 3 11 18 23 10 29 -21z m-237 -56 c-2 -16 -4
-5 -4 22 0 28 2 40 4 28 2 -13 2 -35 0 -50z m91 30 c-2 -23 -8 -29 -35 -31
-31 -3 -33 -1 -33 27 0 29 3 31 36 31 33 0 35 -2 32 -27z m272 1 c0 -8 -4 -12
-10 -9 -5 3 -10 10 -10 16 0 5 5 9 10 9 6 0 10 -7 10 -16z m-303 -50 c-3 -3
-12 -4 -19 -1 -8 3 -5 6 6 6 11 1 17 -2 13 -5z m-227 -29 c-10 -12 -10 -15 1
-15 9 -1 7 -6 -6 -16 -17 -13 -18 -16 -5 -24 9 -6 10 -10 3 -10 -7 0 -16 -17
-20 -37 l-7 -38 -7 35 -6 35 -2 -43 c-1 -36 -4 -42 -18 -38 -10 3 -47 8 -83
11 -36 4 -66 7 -67 8 0 1 1 24 4 50 7 60 34 77 125 77 35 0 70 5 78 10 21 14
24 12 10 -5z m350 8 c0 -14 -19 -38 -25 -32 -8 8 5 39 16 39 5 0 9 -3 9 -7z
m-183 -95 c-2 -13 -4 -3 -4 22 0 25 2 35 4 23 2 -13 2 -33 0 -45z m-132 -68
c4 -6 -10 -9 -37 -9 l-43 2 35 7 c19 4 36 8 37 9 1 0 5 -3 8 -9z m-860 -118
c10 -22 35 -31 35 -12 0 6 -4 10 -10 10 -5 0 -10 5 -10 10 0 6 7 10 15 10 8 0
15 -5 15 -11 0 -5 5 -7 10 -4 6 3 10 0 10 -7 0 -8 3 -9 8 -3 12 16 42 17 42 1
0 -8 4 -17 9 -20 5 -4 7 3 4 14 -4 16 0 20 21 20 16 0 26 -5 26 -15 0 -8 -6
-15 -12 -15 -9 0 -8 -4 2 -11 11 -7 3 -9 -30 -7 -25 1 -48 7 -52 13 -5 7 -8 7
-8 0 0 -10 -95 -14 -103 -5 -2 3 -7 18 -11 33 -6 24 -4 28 11 25 10 -2 22 -13
28 -26z m169 -88 c27 -10 20 -44 -9 -44 -20 0 -25 5 -25 25 0 26 7 29 34 19z
m1566 -98 c0 -2 -8 -10 -17 -17 -16 -13 -17 -12 -4 4 13 16 21 21 21 13z
m-2600 -92 c0 -14 -3 -14 -16 -3 -13 10 -17 10 -25 -2 -7 -12 -9 -12 -9 1 -1
12 -3 11 -11 -2 -13 -22 -35 -23 -43 -2 -4 12 -15 15 -36 12 -17 -3 -30 -1
-30 4 0 4 38 8 85 8 72 0 85 -3 85 -16z m410 0 c0 -14 -3 -14 -15 -4 -12 10
-15 10 -15 -1 0 -10 -3 -10 -12 -1 -16 16 -28 15 -28 -2 0 -8 -6 -17 -12 -19
-7 -3 4 -6 24 -6 20 -1 39 -7 41 -13 3 -7 6 -4 7 7 2 17 3 16 10 -5 19 -58 17
-60 -69 -60 -63 0 -80 3 -85 16 -11 29 -6 34 37 34 23 0 37 4 31 8 -6 4 -15
16 -21 26 -12 23 -42 29 -60 14 -13 -11 -19 3 -6 15 3 4 44 7 90 7 70 0 83 -3
83 -16z m788 -26 c15 -15 16 -53 1 -79 -17 -32 -39 -5 -39 47 0 45 14 56 38
32z m-1290 -18 c2 -6 11 -10 20 -11 10 -1 -8 -9 -38 -19 -56 -18 -77 -17 -50
1 11 8 12 12 3 16 -7 2 -13 10 -13 17 0 16 73 11 78 -4z m230 -7 c-10 -2 -26
-2 -35 0 -10 3 -2 5 17 5 19 0 27 -2 18 -5z m-138 -20 c0 -15 -2 -16 -10 -3
-6 10 -10 11 -10 3 0 -7 -9 -13 -20 -13 -17 0 -19 2 -8 15 18 20 48 19 48 -2z
m2693 -243 c1 -232 -27 -402 -78 -466 -20 -25 -25 -27 -39 -15 -15 13 -15 15
6 25 15 7 24 22 26 41 l3 30 -22 -32 c-11 -18 -25 -33 -30 -33 -12 0 -11 14 2
27 7 7 9 20 5 30 -6 15 -9 15 -16 3 -8 -13 -10 -12 -13 0 -20 66 -35 357 -21
394 8 21 21 20 26 -2 3 -10 13 -19 22 -19 14 0 16 15 17 106 1 87 3 98 10 61
4 -25 8 -64 8 -87 1 -33 4 -41 16 -37 11 5 15 25 16 83 l2 76 9 -83 c10 -79
11 -82 25 -62 12 18 14 42 10 123 -5 86 -4 95 5 57 6 -25 11 -124 11 -220z
m-2778 220 c4 -6 -6 -10 -22 -9 -25 0 -26 1 -8 9 11 5 21 9 22 9 1 1 5 -3 8
-9z m2020 -242 c14 -16 25 -34 25 -40 0 -6 -10 4 -23 23 -34 50 -74 48 -104
-6 -23 -41 -32 -42 -12 -2 36 69 71 77 114 25z m82 -323 c14 -334 -94 -626
-187 -508 -18 23 -19 28 -5 35 15 9 37 47 49 83 5 18 1 21 -28 23 -27 2 -36
-2 -41 -18 -11 -34 -22 -22 -34 37 -18 90 -17 93 29 93 35 0 43 5 60 32 11 18
22 58 26 90 5 48 10 58 25 58 17 0 19 9 20 103 1 110 0 111 25 -41 5 -30 6
-31 21 -17 13 14 15 33 10 118 -3 56 -9 113 -12 127 -3 14 4 0 16 -30 15 -41
22 -87 26 -185z m-220 188 c-1 -21 2 -50 7 -64 6 -22 4 -27 -13 -32 -13 -3
-21 -15 -24 -38 -2 -19 -3 -10 -1 18 4 53 23 153 29 153 2 0 3 -17 2 -37z
m130 -45 c-3 -7 -5 -2 -5 12 0 14 2 19 5 13 2 -7 2 -19 0 -25z m-1620 -60 c-6
-43 -13 -78 -17 -78 -6 0 3 84 16 139 10 46 11 15 1 -61z m-403 -37 c-3 -39
-11 -71 -16 -71 -5 0 -7 8 -4 18 3 9 8 43 12 75 9 82 17 63 8 -22z m1853 -138
c-2 -16 -4 -3 -4 27 0 30 2 43 4 28 2 -16 2 -40 0 -55z m-1367 -13 c0 -5 -9
-10 -20 -10 -11 0 -20 5 -20 10 0 6 9 10 20 10 11 0 20 -4 20 -10z m1367 -72
c-3 -8 -6 -5 -6 6 -1 11 2 17 5 13 3 -3 4 -12 1 -19z m-1284 -13 c-3 -9 -8
-14 -10 -11 -3 3 -2 9 2 15 9 16 15 13 8 -4z m-535 -171 c-24 -22 -48 -34 -65
-34 l-28 0 25 20 c14 11 30 20 36 20 7 0 22 9 35 19 40 32 37 12 -3 -25z m42
6 c-25 -35 -54 -55 -90 -64 -21 -5 -20 -3 5 8 17 8 46 30 64 50 43 44 49 46
21 6z m-100 5 c-7 -8 -20 -15 -29 -15 -11 0 -8 5 9 14 33 19 35 19 20 1z"/>
<path d="M2640 2940 c0 -5 9 -10 20 -10 11 0 20 5 20 10 0 6 -9 10 -20 10 -11
0 -20 -4 -20 -10z"/>
<path d="M2638 2883 c7 -3 16 -2 19 1 4 3 -2 6 -13 5 -11 0 -14 -3 -6 -6z"/>
<path d="M3391 2054 c0 -11 3 -14 6 -6 3 7 2 16 -1 19 -3 4 -6 -2 -5 -13z"/>
<path d="M2120 1540 c0 -5 7 -10 15 -10 8 0 15 5 15 10 0 6 -7 10 -15 10 -8 0
-15 -4 -15 -10z"/>
<path d="M3648 476 c-33 -41 -34 -46 -9 -46 21 0 61 44 61 66 0 25 -24 15 -52
-20z"/>
<path d="M2572 2635 c0 -16 2 -22 5 -12 2 9 2 23 0 30 -3 6 -5 -1 -5 -18z"/>
</g>
</svg>
