<svg xmlns="http://www.w3.org/2000/svg" viewBox="0 0 360 220" role="img" aria-labelledby="title desc">
  <title id="title">Plantadeira ASM 32 linhas</title>
  <desc id="desc">Miniatura realista de plantadeira agrícola verde com caixas e linhas de plantio.</desc>
  <rect width="360" height="220" rx="10" fill="#101719"/>
  <path d="M20 166h320" stroke="#2d3437" stroke-width="10" stroke-linecap="round"/>
  <ellipse cx="183" cy="168" rx="130" ry="16" fill="#050806" opacity=".58"/>
  <path d="M47 92h226l46 53H101z" fill="#1f6f2f" stroke="#07140b" stroke-width="8" stroke-linejoin="round"/>
  <path d="M64 75h48v38H64zM127 70h48v43h-48zM190 75h48v38h-48z" fill="#dfe7ea" stroke="#2d3437" stroke-width="5"/>
  <path d="M42 89V59h42M100 145v35M138 145v35M176 145v35M214 145v35M252 145v35M290 145v35" stroke="#cfd8dc" stroke-width="7" stroke-linecap="round"/>
  <path d="M86 151h220" stroke="#f2c94c" stroke-width="7" stroke-linecap="round"/>
  <circle cx="92" cy="177" r="15" fill="#0d1214" stroke="#cfd8dc" stroke-width="7"/>
  <circle cx="270" cy="177" r="15" fill="#0d1214" stroke="#cfd8dc" stroke-width="7"/>
</svg>
