<svg xmlns="http://www.w3.org/2000/svg" viewBox="0 0 360 220" role="img" aria-labelledby="title desc">
  <title id="title">John Deere 8R customizado</title>
  <desc id="desc">Miniatura realista de trator verde e amarelo inspirado em modelo agrícola moderno.</desc>
  <defs>
    <linearGradient id="green" x1="0" x2="1" y1="0" y2="1">
      <stop offset="0" stop-color="#37a64a"/>
      <stop offset="0.62" stop-color="#18672b"/>
      <stop offset="1" stop-color="#0a2c15"/>
    </linearGradient>
    <linearGradient id="glass" x1="0" x2="1">
      <stop offset="0" stop-color="#99c0c7"/>
      <stop offset="1" stop-color="#34545c"/>
    </linearGradient>
  </defs>
  <rect width="360" height="220" rx="10" fill="#101719"/>
  <path d="M22 168h316" stroke="#2d3437" stroke-width="10" stroke-linecap="round"/>
  <ellipse cx="168" cy="168" rx="124" ry="18" fill="#050806" opacity=".58"/>
  <path d="M56 139h45l39-68h101l28 68h44" fill="none" stroke="#07140b" stroke-width="30" stroke-linecap="round" stroke-linejoin="round"/>
  <path d="M60 132h43l38-66h97l28 66h45" fill="none" stroke="url(#green)" stroke-width="22" stroke-linecap="round" stroke-linejoin="round"/>
  <path d="M140 66h-31L88 106h70M230 66l19-42h45" fill="none" stroke="#dfe7ea" stroke-width="12" stroke-linecap="round" stroke-linejoin="round"/>
  <path d="M157 61h66l22 58H126l31-58Z" fill="#111719" stroke="#dfe7ea" stroke-width="6"/>
  <path d="M169 72h35l11 36h-58l12-36Z" fill="url(#glass)"/>
  <path d="M84 116h65M242 121h54" stroke="#f2c94c" stroke-width="7" stroke-linecap="round"/>
  <circle cx="101" cy="150" r="43" fill="#0d1214" stroke="#cfd8dc" stroke-width="11"/>
  <circle cx="101" cy="150" r="20" fill="#2d3437" stroke="#f2c94c" stroke-width="8"/>
  <circle cx="273" cy="151" r="31" fill="#0d1214" stroke="#cfd8dc" stroke-width="9"/>
  <circle cx="273" cy="151" r="14" fill="#2d3437" stroke="#f2c94c" stroke-width="7"/>
</svg>
